<svg width="20" height="16" viewBox="0 0 20 16" fill="none" xmlns="http://www.w3.org/2000/svg">
<path fill-rule="evenodd" clip-rule="evenodd" d="M6 0.000502021C4.93913 0.000502021 3.92172 0.421929 3.17157 1.17207C2.42143 1.92222 2 2.93964 2 4.0005C2 5.06137 2.42143 6.07878 3.17157 6.82893C3.92172 7.57907 4.93913 8.0005 6 8.0005C7.06087 8.0005 8.07828 7.57907 8.82843 6.82893C9.57857 6.07878 10 5.06137 10 4.0005C10 2.93964 9.57857 1.92222 8.82843 1.17207C8.07828 0.421929 7.06087 0.000502021 6 0.000502021ZM4 9.0005C2.93913 9.0005 1.92172 9.42193 1.17157 10.1721C0.421427 10.9222 0 11.9396 0 13.0005V14.0005C0 14.5309 0.210714 15.0396 0.585786 15.4147C0.960859 15.7898 1.46957 16.0005 2 16.0005H10C10.5304 16.0005 11.0391 15.7898 11.4142 15.4147C11.7893 15.0396 12 14.5309 12 14.0005V13.0005C12 11.9396 11.5786 10.9222 10.8284 10.1721C10.0783 9.42193 9.06087 9.0005 8 9.0005H4ZM11.25 6.9055C11.728 6.0455 12 5.0555 12 4.0005C12.0002 2.98394 11.7421 1.98399 11.25 1.0945C11.8178 0.557231 12.5306 0.198114 13.3003 0.061531C14.07 -0.0750516 14.8628 0.0168878 15.5808 0.325987C16.2988 0.635086 16.9106 1.1478 17.3403 1.80075C17.7701 2.45371 17.9992 3.21829 17.9992 4C17.9992 4.78172 17.7701 5.5463 17.3403 6.19925C16.9106 6.85221 16.2988 7.36492 15.5808 7.67402C14.8628 7.98312 14.07 8.07506 13.3003 7.93847C12.5306 7.80189 11.8178 7.44277 11.25 6.9055ZM13.466 16.0005C13.806 15.4125 14.001 14.7295 14.001 14.0005V13.0005C14.0028 11.5243 13.4586 10.0995 12.473 9.0005H16C17.0609 9.0005 18.0783 9.42193 18.8284 10.1721C19.5786 10.9222 20 11.9396 20 13.0005V14.0005C20 14.5309 19.7893 15.0396 19.4142 15.4147C19.0391 15.7898 18.5304 16.0005 18 16.0005H13.466Z" fill="black"/>
</svg>
